RBDS024runT25_grf
version=1
nRows=27
nColumns=19
inDegrees=no
endheader
time	ground_force_r_vx	ground_force_r_vy	ground_force_r_vz	ground_force_r_px	ground_force_r_py	ground_force_r_pz	ground_force_r_mx	ground_force_r_my	ground_force_r_mz	ground_force_l_vx	ground_force_l_vy	ground_force_l_vz	ground_force_l_px	ground_force_l_py	ground_force_l_pz	ground_force_l_mx	ground_force_l_my	ground_force_l_mz
      7.49900000	    183.57856378	    810.57272462	     22.96335722	      1.83141500	      0.00000000	      1.03796813	      0.00000000	      3.19812185	      0.00000000	      0.00000000	      0.00000000	      0.00000000	      0.00000000	      0.00000000	      0.00000000	      0.00000000	      0.00000000	      0.00000000
      7.50000000	    182.88036355	    792.72171289	     23.78022777	      1.82938980	      0.00000000	      1.03797256	      0.00000000	      3.19221673	      0.00000000	      0.00000000	      0.00000000	      0.00000000	      0.00000000	      0.00000000	      0.00000000	      0.00000000	      0.00000000	      0.00000000
      7.50100000	    181.86942428	    775.13708341	     24.44504907	      1.82745608	      0.00000000	      1.03800400	      0.00000000	      3.18324512	      0.00000000	      0.00000000	      0.00000000	      0.00000000	      0.00000000	      0.00000000	      0.00000000	      0.00000000	      0.00000000	      0.00000000
      7.50200000	    180.85848501	    757.55245393	     25.10987036	      1.82552236	      0.00000000	      1.03803544	      0.00000000	      3.17427351	      0.00000000	      0.00000000	      0.00000000	      0.00000000	      0.00000000	      0.00000000	      0.00000000	      0.00000000	      0.00000000	      0.00000000
      7.50300000	    179.84754574	    739.96782444	     25.77469166	      1.82358863	      0.00000000	      1.03806688	      0.00000000	      3.16530190	      0.00000000	      0.00000000	      0.00000000	      0.00000000	      0.00000000	      0.00000000	      0.00000000	      0.00000000	      0.00000000	      0.00000000
      7.50400000	    178.63758591	    722.61576133	     26.33417150	      1.82172679	      0.00000000	      1.03811766	      0.00000000	      3.15270573	      0.00000000	      0.00000000	      0.00000000	      0.00000000	      0.00000000	      0.00000000	      0.00000000	      0.00000000	      0.00000000	      0.00000000
      7.50500000	    177.32811580	    705.37998139	     26.84098063	      1.81990088	      0.00000000	      1.03817810	      0.00000000	      3.13829729	      0.00000000	      0.00000000	      0.00000000	      0.00000000	      0.00000000	      0.00000000	      0.00000000	      0.00000000	      0.00000000	      0.00000000
      7.50600000	    176.01864569	    688.14420146	     27.34778976	      1.81807497	      0.00000000	      1.03823854	      0.00000000	      3.12388885	      0.00000000	      0.00000000	      0.00000000	      0.00000000	      0.00000000	      0.00000000	      0.00000000	      0.00000000	      0.00000000	      0.00000000
      7.50700000	    174.61583167	    671.05120085	     27.80121511	      1.81629023	      0.00000000	      1.03830910	      0.00000000	      3.10688299	      0.00000000	      0.00000000	      0.00000000	      0.00000000	      0.00000000	      0.00000000	      0.00000000	      0.00000000	      0.00000000	      0.00000000
      7.50800000	    173.02632982	    654.24375889	     28.14787294	      1.81458783	      0.00000000	      1.03839989	      0.00000000	      3.08468229	      0.00000000	      0.00000000	      0.00000000	      0.00000000	      0.00000000	      0.00000000	      0.00000000	      0.00000000	      0.00000000	      0.00000000
      7.50900000	    171.43682798	    637.43631692	     28.49453076	      1.81288543	      0.00000000	      1.03849068	      0.00000000	      3.06248159	      0.00000000	      0.00000000	      0.00000000	      0.00000000	      0.00000000	      0.00000000	      0.00000000	      0.00000000	      0.00000000	      0.00000000
      7.51000000	    169.84732614	    620.62887496	     28.84118858	      1.81118303	      0.00000000	      1.03858147	      0.00000000	      3.04028089	      0.00000000	      0.00000000	      0.00000000	      0.00000000	      0.00000000	      0.00000000	      0.00000000	      0.00000000	      0.00000000	      0.00000000
      7.51100000	    168.00033307	    604.32506458	     29.02929523	      1.80961870	      0.00000000	      1.03870323	      0.00000000	      3.00802632	      0.00000000	      0.00000000	      0.00000000	      0.00000000	      0.00000000	      0.00000000	      0.00000000	      0.00000000	      0.00000000	      0.00000000
      7.51200000	    166.15334000	    588.02125421	     29.21740189	      1.80805436	      0.00000000	      1.03882498	      0.00000000	      2.97577175	      0.00000000	      0.00000000	      0.00000000	      0.00000000	      0.00000000	      0.00000000	      0.00000000	      0.00000000	      0.00000000	      0.00000000
      7.51300000	    164.30634693	    571.71744383	     29.40550854	      1.80649003	      0.00000000	      1.03894674	      0.00000000	      2.94351718	      0.00000000	      0.00000000	      0.00000000	      0.00000000	      0.00000000	      0.00000000	      0.00000000	      0.00000000	      0.00000000	      0.00000000
      7.51400000	    162.30517257	    555.79601317	     29.49134638	      1.80502634	      0.00000000	      1.03908902	      0.00000000	      2.90317081	      0.00000000	      0.00000000	      0.00000000	      0.00000000	      0.00000000	      0.00000000	      0.00000000	      0.00000000	      0.00000000	      0.00000000
      7.51500000	    160.22690757	    540.06577236	     29.52604980	      1.80361297	      0.00000000	      1.03924158	      0.00000000	      2.85877854	      0.00000000	      0.00000000	      0.00000000	      0.00000000	      0.00000000	      0.00000000	      0.00000000	      0.00000000	      0.00000000	      0.00000000
      7.51600000	    158.14864256	    524.33553155	     29.56075323	      1.80219961	      0.00000000	      1.03939413	      0.00000000	      2.81438627	      0.00000000	      0.00000000	      0.00000000	      0.00000000	      0.00000000	      0.00000000	      0.00000000	      0.00000000	      0.00000000	      0.00000000
      7.51700000	    156.00309856	    508.81765435	     29.54712499	      1.80084015	      0.00000000	      1.03955661	      0.00000000	      2.76534153	      0.00000000	      0.00000000	      0.00000000	      0.00000000	      0.00000000	      0.00000000	      0.00000000	      0.00000000	      0.00000000	      0.00000000
      7.51800000	    153.72299655	    493.72450436	     29.43683342	      1.79958851	      0.00000000	      1.03973896	      0.00000000	      2.70699185	      0.00000000	      0.00000000	      0.00000000	      0.00000000	      0.00000000	      0.00000000	      0.00000000	      0.00000000	      0.00000000	      0.00000000
      7.51900000	    151.44289455	    478.63135437	     29.32654185	      1.79833687	      0.00000000	      1.03992132	      0.00000000	      2.64864217	      0.00000000	      0.00000000	      0.00000000	      0.00000000	      0.00000000	      0.00000000	      0.00000000	      0.00000000	      0.00000000	      0.00000000
      7.52000000	    149.16279254	    463.53820438	     29.21625028	      1.79708523	      0.00000000	      1.04010367	      0.00000000	      2.59029249	      0.00000000	      0.00000000	      0.00000000	      0.00000000	      0.00000000	      0.00000000	      0.00000000	      0.00000000	      0.00000000	      0.00000000
      7.52100000	    146.71295757	    449.13832907	     28.97226214	      1.79600346	      0.00000000	      1.04031401	      0.00000000	      2.51651534	      0.00000000	      0.00000000	      0.00000000	      0.00000000	      0.00000000	      0.00000000	      0.00000000	      0.00000000	      0.00000000	      0.00000000
      7.52200000	    144.26312260	    434.73845376	     28.72827400	      1.79492169	      0.00000000	      1.04052435	      0.00000000	      2.44273819	      0.00000000	      0.00000000	      0.00000000	      0.00000000	      0.00000000	      0.00000000	      0.00000000	      0.00000000	      0.00000000	      0.00000000
      7.52300000	    141.81328763	    420.33857845	     28.48428587	      1.79383992	      0.00000000	      1.04073469	      0.00000000	      2.36896103	      0.00000000	      0.00000000	      0.00000000	      0.00000000	      0.00000000	      0.00000000	      0.00000000	      0.00000000	      0.00000000	      0.00000000
      7.52400000	    139.27307333	    406.43295345	     28.16033416	      1.79287480	      0.00000000	      1.04096195	      0.00000000	      2.28420600	      0.00000000	      0.00000000	      0.00000000	      0.00000000	      0.00000000	      0.00000000	      0.00000000	      0.00000000	      0.00000000	      0.00000000
      7.52500000	    136.68766936	    392.77445360	     27.79640068	      1.79196800	      0.00000000	      1.04119767	      0.00000000	      2.19396204	      0.00000000	      0.00000000	      0.00000000	      0.00000000	      0.00000000	      0.00000000	      0.00000000	      0.00000000	      0.00000000	      0.00000000
